<?xml version="1.0" encoding="UTF-8" standalone="no"?>
<!-- Created with Inkscape (http://www.inkscape.org/) -->

<svg
   width="256"
   height="256"
   viewBox="0 0 256 256"
   version="1.1"
   id="svg5"
   xml:space="preserve"
   inkscape:version="1.2.2 (b0a8486541, 2022-12-01)"
   sodipodi:docname="idea-assist.svg"
   xmlns:inkscape="http://www.inkscape.org/namespaces/inkscape"
   xmlns:sodipodi="http://sodipodi.sourceforge.net/DTD/sodipodi-0.dtd"
   xmlns="http://www.w3.org/2000/svg"
   xmlns:svg="http://www.w3.org/2000/svg"><sodipodi:namedview
     id="namedview7"
     pagecolor="#ffffff"
     bordercolor="#000000"
     borderopacity="0.25"
     inkscape:showpageshadow="2"
     inkscape:pageopacity="0.0"
     inkscape:pagecheckerboard="0"
     inkscape:deskcolor="#262626"
     inkscape:document-units="px"
     showgrid="false"
     inkscape:zoom="1"
     inkscape:cx="229.5"
     inkscape:cy="127.5"
     inkscape:window-width="1916"
     inkscape:window-height="1076"
     inkscape:window-x="0"
     inkscape:window-y="0"
     inkscape:window-maximized="1"
     inkscape:current-layer="layer1" /><defs
     id="defs2" /><g
     inkscape:label="Layer 1"
     inkscape:groupmode="layer"
     id="layer1"><path
       style="fill:none;stroke:#000000;stroke-width:12;stroke-linejoin:round;stroke-dasharray:none;stroke-opacity:1"
       d="m 118.51025,20.412109 h 17.89209 c 1.61637,18.62784 25.66715,28.461382 40.51611,15.893067 l 13.667,13.772461 c -12.07,9.826742 -5.39298,38.204862 18.57568,42.476563 v 14.24414 c -21.29032,2.04836 -30.63557,23.90517 -16.77637,39.52246 l -12.27099,12.73096 c -9.52362,-3.01306 -20.46716,-4.21198 -19.3335,15.51269 -16.1358,12.1917 -56.18248,7.7311 -64.583982,4.36524 2.252417,-22.38917 -8.88458,-26.80484 -23.083007,-19.81104 L 62.087401,146.75293 C 74.261865,131.112 72.526064,112.32265 46.838866,105.86181 V 91.033203 C 64.541236,88.224578 80.309464,67.442671 65.248533,48.065918 L 79.318846,35.42627 c 18.836045,13.322658 38.913044,1.583144 39.191404,-15.014161 z"
       id="path299"
       sodipodi:nodetypes="ccccccccccccccccc" /><path
       style="fill:none;stroke:#000000;stroke-width:12;stroke-linecap:round;stroke-dasharray:none;stroke-opacity:1"
       d="M 126.08593,71.447265 V 118.58203"
       id="path1074" /><path
       style="fill:none;stroke:#000000;stroke-width:12;stroke-linecap:round;stroke-dasharray:none;stroke-opacity:1"
       d="M 142.39704,78.349992 109.06772,111.6793"
       id="path1076" /><path
       style="fill:none;stroke:#000000;stroke-width:12;stroke-linecap:round;stroke-dasharray:none;stroke-opacity:1"
       d="m 150.15331,95.01465 -47.13476,-8e-6"
       id="path1078" /><path
       style="fill:none;stroke:#000000;stroke-width:12;stroke-linecap:round;stroke-dasharray:none;stroke-opacity:1"
       d="M 143.25058,112.1793 109.92128,78.849989"
       id="path1080" /><path
       style="fill:none;stroke:#000000;stroke-width:12;stroke-linecap:round;stroke-linejoin:round;stroke-dasharray:none;stroke-opacity:1"
       d="m 155.99169,180.21045 c 2.08487,4.49361 6.20564,8.05488 2.3667,14.6665 -29.92149,10.90504 -47.57467,3.24958 -63.004387,0.0112 -3.874098,2.51511 -3.500982,14.04881 7.197747,19.1748 31.82113,10.11145 58.04922,-1.23602 60.13086,-8.82471 0.40153,-2.78434 -0.98359,-7.22825 -3.59033,-9.46679"
       id="path1082"
       sodipodi:nodetypes="cccccc" /><path
       style="fill:none;stroke:#000000;stroke-width:12;stroke-linecap:round;stroke-linejoin:round;stroke-dasharray:none;stroke-opacity:1"
       d="m 95.200194,208.17969 c 0.629946,5.73227 1.594749,9.60357 4.805666,18.54639 8.17859,8.00313 17.47768,12.13468 27.32714,15.28027 9.51645,-2.66886 23.52084,-9.14777 28.00586,-15.24317 2.47379,-5.71056 4.35631,-12.18476 6.06739,-18.88037"
       id="path1084"
       sodipodi:nodetypes="ccccc" /><path
       style="fill:none;stroke:#000000;stroke-width:12;stroke-linecap:round;stroke-linejoin:round;stroke-dasharray:none;stroke-opacity:1"
       d="m 97.729491,182.23144 c -1.861592,1.71798 -2.466344,10.43559 0.65918,12.65772"
       id="path1086"
       sodipodi:nodetypes="cc" /><circle
       style="fill:#ffffff;fill-opacity:1;stroke:#000000;stroke-width:10;stroke-dasharray:none;stroke-opacity:1"
       id="path243"
       cx="126.08594"
       cy="95.014648"
       r="16.280062" /></g></svg>
