<?xml version="1.0" encoding="UTF-8" standalone="no"?>
<!-- Created with Inkscape (http://www.inkscape.org/) -->

<svg
   width="384"
   height="256"
   viewBox="0 0 384 256"
   version="1.1"
   id="svg5"
   xml:space="preserve"
   inkscape:version="1.2.2 (b0a8486541, 2022-12-01)"
   sodipodi:docname="logo.svg"
   xmlns:inkscape="http://www.inkscape.org/namespaces/inkscape"
   xmlns:sodipodi="http://sodipodi.sourceforge.net/DTD/sodipodi-0.dtd"
   xmlns="http://www.w3.org/2000/svg"
   xmlns:svg="http://www.w3.org/2000/svg"><sodipodi:namedview
     id="namedview7"
     pagecolor="#808080"
     bordercolor="#000000"
     borderopacity="0.25"
     inkscape:showpageshadow="2"
     inkscape:pageopacity="0"
     inkscape:pagecheckerboard="0"
     inkscape:deskcolor="#262626"
     inkscape:document-units="px"
     showgrid="false"
     inkscape:zoom="2.8284273"
     inkscape:cx="212.83913"
     inkscape:cy="143.71945"
     inkscape:window-width="1916"
     inkscape:window-height="1076"
     inkscape:window-x="0"
     inkscape:window-y="0"
     inkscape:window-maximized="1"
     inkscape:current-layer="layer1"><inkscape:grid
       type="xygrid"
       id="grid369"
       spacingx="10"
       spacingy="10"
       empspacing="3"
       originx="0"
       originy="0" /></sodipodi:namedview><defs
     id="defs2" /><g
     inkscape:label="Layer 1"
     inkscape:groupmode="layer"
     id="layer1"><path
       style="fill:#030402;stroke-width:0.704049"
       d="m 126.91438,184.54992 c -8.46207,-5.16017 -4.71821,-25.00266 7.91914,-41.97145 3.96008,-5.31737 12.4015,-13.72896 13.77768,-13.72896 0.34707,0 1.70908,-0.82226 3.02668,-1.82723 5.28598,-4.03183 15.49784,-5.71751 18.81754,-3.10621 5.34612,4.20524 3.94984,21.09043 -2.78713,33.70462 -9.95338,18.63654 -31.26247,32.71709 -40.75391,26.92923 z m 114.46442,0.37703 c -13.77509,-3.7198 -29.67681,-21.5581 -34.86133,-39.10691 -2.83997,-9.61294 -1.18381,-22.73808 2.77955,-22.02781 0.6847,0.12266 1.05827,-0.0788 0.83015,-0.44798 -1.13028,-1.82884 5.56061,-1.09574 12.22534,1.33946 5.50332,2.01088 15.14446,9.92976 20.9294,17.19072 8.51442,10.6869 13.21098,22.78875 12.77772,32.92496 -0.42682,9.98545 -4.58489,12.85387 -14.68083,10.12756 z m -55.97196,-5.89903 c -2.59474,-0.6446 -6.68846,-5.49601 -6.68846,-7.92643 0,-3.36121 1.16955,-4.8908 5.16035,-6.74893 11.32915,-5.27488 25.10187,3.91004 17.19322,11.46604 -3.30696,3.15948 -10.1897,4.56955 -15.66511,3.20932 z m 88.75037,-42.11558 c -1.32655,-7.07122 -5.603,-17.28534 -10.8623,-25.94415 -5.27928,-8.6918 -20.03522,-22.223849 -29.41013,-26.970784 l -3.75839,-1.903053 1.92995,-2.042145 c 2.64945,-2.803469 9.66687,-7.518503 12.37308,-8.313523 7.499,-2.203049 12.13174,-2.190115 18.57748,0.05189 14.59456,5.076261 25.53754,16.733809 29.16188,31.066135 3.52414,13.93611 -2.55953,31.14038 -12.5727,35.5548 -3.73851,1.64815 -4.90897,1.32557 -5.43887,-1.49911 z M 99.732325,136.62805 c -2.394069,-4.26815 -3.348646,-5.17756 -6.600462,-15.40138 -2.79231,-6.50595 -3.110913,-19.36686 -0.629624,-25.415607 3.156508,-7.694741 9.598921,-16.499959 14.265111,-19.496964 7.32718,-4.706121 10.28818,-5.548692 19.49934,-5.548692 9.14108,0 9.2813,0.04499 19.65073,6.309249 4.45238,2.689687 4.39817,3.326219 -0.50817,5.965961 -8.84094,4.756679 -18.71082,12.173616 -23.00642,17.288653 -0.9727,1.15826 -2.41673,2.74237 -3.20897,3.52025 -5.6369,5.53475 -11.35745,17.24378 -15.65361,32.04048 0.0673,1.54183 -2.49421,1.69803 -3.807925,0.73805 z"
       id="path306"
       sodipodi:nodetypes="sssccssssscsssssssssssscsscssssccssssssscc" /></g></svg>
