<?xml version="1.0" encoding="UTF-8" standalone="no"?>
<!-- Created with Inkscape (http://www.inkscape.org/) -->

<svg
   width="210mm"
   height="297mm"
   viewBox="0 0 210 297"
   version="1.1"
   id="svg5"
   inkscape:version="1.2.2 (b0a8486541, 2022-12-01)"
   sodipodi:docname="diagram.svg"
   xmlns:inkscape="http://www.inkscape.org/namespaces/inkscape"
   xmlns:sodipodi="http://sodipodi.sourceforge.net/DTD/sodipodi-0.dtd"
   xmlns="http://www.w3.org/2000/svg"
   xmlns:svg="http://www.w3.org/2000/svg">
  <sodipodi:namedview
     id="namedview7"
     pagecolor="#000000"
     bordercolor="#000000"
     borderopacity="0.25"
     inkscape:showpageshadow="2"
     inkscape:pageopacity="0"
     inkscape:pagecheckerboard="0"
     inkscape:deskcolor="#d1d1d1"
     inkscape:document-units="mm"
     showgrid="false"
     inkscape:zoom="1"
     inkscape:cx="457.5"
     inkscape:cy="404.5"
     inkscape:window-width="1916"
     inkscape:window-height="1076"
     inkscape:window-x="0"
     inkscape:window-y="0"
     inkscape:window-maximized="1"
     inkscape:current-layer="layer1" />
  <defs
     id="defs2" />
  <g
     inkscape:label="Layer 1"
     inkscape:groupmode="layer"
     id="layer1">
    <rect
       style="fill:none;stroke:#ffffff;stroke-width:0.89429167;stroke-linecap:round;stroke-linejoin:round;stroke-dasharray:none;stroke-opacity:1"
       id="rect294"
       width="20.90745"
       height="9.9994717"
       x="38.678234"
       y="74.764458" />
    <text
       xml:space="preserve"
       style="font-size:4.23333px;fill:#ffffff;stroke:none;stroke-width:2.64583;stroke-linecap:round;stroke-linejoin:round;stroke-opacity:1;fill-opacity:1"
       x="44.02943"
       y="72.343788"
       id="text404"><tspan
         sodipodi:role="line"
         id="tspan402"
         style="font-size:4.23333px;fill:#ffffff;fill-opacity:1;stroke:none;stroke-width:2.64583;stroke-opacity:1"
         x="44.02943"
         y="72.343788">this</tspan></text>
    <text
       xml:space="preserve"
       style="font-size:4.23333px;fill:#ffffff;fill-opacity:1;stroke:none;stroke-width:2.64583;stroke-linecap:round;stroke-linejoin:round;stroke-opacity:1"
       x="44.073875"
       y="89.974701"
       id="text962"><tspan
         sodipodi:role="line"
         id="tspan960"
         style="stroke-width:2.64583;stroke:none;stroke-opacity:1;fill:#ffffff;fill-opacity:1"
         x="44.073875"
         y="89.974701">that</tspan></text>
    <text
       xml:space="preserve"
       style="font-size:4.23333px;fill:#ffffff;fill-opacity:1;stroke:none;stroke-width:2.64583;stroke-linecap:round;stroke-linejoin:round;stroke-opacity:1"
       x="39.016823"
       y="22.603371"
       id="text1178"><tspan
         sodipodi:role="line"
         id="tspan1176"
         style="stroke:none;stroke-width:2.64583;stroke-opacity:1;fill:#ffffff;fill-opacity:1"
         x="39.016823"
         y="22.603371">smallest</tspan><tspan
         sodipodi:role="line"
         style="stroke:none;stroke-width:2.64583;stroke-opacity:1;fill:#ffffff;fill-opacity:1"
         x="39.016823"
         y="27.895033"
         id="tspan2780" /></text>
    <text
       xml:space="preserve"
       style="font-size:4.23333px;fill:#ffffff;fill-opacity:1;stroke:none;stroke-width:2.64583;stroke-linecap:round;stroke-linejoin:round;stroke-opacity:1"
       x="146.95705"
       y="22.185825"
       id="text1182"><tspan
         sodipodi:role="line"
         id="tspan1180"
         style="stroke:none;stroke-width:2.64583;stroke-opacity:1;fill:#ffffff;fill-opacity:1"
         x="146.95705"
         y="22.185825">largest</tspan></text>
    <rect
       style="fill:none;stroke:#ffffff;stroke-width:1.63956;stroke-linecap:round;stroke-linejoin:round;stroke-opacity:1;fill-opacity:1"
       id="rect1242"
       width="52.234146"
       height="24.982189"
       x="130.52936"
       y="74.474617" />
    <text
       xml:space="preserve"
       style="font-size:4.23333px;fill:#ffffff;stroke:none;stroke-width:2.64583;stroke-linecap:round;stroke-linejoin:round;stroke-opacity:1;fill-opacity:1"
       x="129.61757"
       y="71.855675"
       id="text1246"><tspan
         sodipodi:role="line"
         id="tspan1244"
         style="font-size:4.23333px;fill:#ffffff;fill-opacity:1;stroke:none;stroke-width:2.64583;stroke-opacity:1"
         x="129.61757"
         y="71.855675">this</tspan></text>
    <text
       xml:space="preserve"
       style="font-size:4.23333px;fill:#ffffff;fill-opacity:1;stroke:none;stroke-width:2.64583;stroke-linecap:round;stroke-linejoin:round;stroke-opacity:1"
       x="129.66203"
       y="105.54562"
       id="text1250"><tspan
         sodipodi:role="line"
         id="tspan1248"
         style="stroke-width:2.64583;stroke:none;stroke-opacity:1;fill:#ffffff;fill-opacity:1"
         x="129.66203"
         y="105.54562">that</tspan></text>
    <path
       style="fill:#000000;fill-opacity:1;stroke:#ffffff;stroke-width:1.63956;stroke-linecap:round;stroke-linejoin:round;stroke-opacity:1"
       d="M 146.42816,57.770311 V 69.87297 l 2.7674,-2.767401 -5.47755,0.05848 2.71425,2.714243"
       id="path1252"
       sodipodi:nodetypes="ccccc" />
    <path
       style="fill:#000000;fill-opacity:1;stroke:#ffffff;stroke-width:1.63956;stroke-linecap:round;stroke-linejoin:round;stroke-opacity:1"
       d="m 147.22068,103.94985 v 12.10266 l 2.7674,-2.7674 -5.47755,0.0585 2.71425,2.71424"
       id="path1254"
       sodipodi:nodetypes="ccccc" />
    <text
       xml:space="preserve"
       style="font-size:4.23333px;fill:#ffffff;fill-opacity:1;stroke:none;stroke-width:2.64583;stroke-linecap:round;stroke-linejoin:round;stroke-opacity:1"
       x="73.916466"
       y="-124.88148"
       id="text1266"
       transform="rotate(90)"><tspan
         sodipodi:role="line"
         id="tspan1264"
         style="stroke-width:2.64583;stroke:none;stroke-opacity:1;fill:#ffffff;fill-opacity:1"
         x="73.916466"
         y="-124.88148">name</tspan></text>
    <text
       xml:space="preserve"
       style="font-size:4.23333px;fill:#ffffff;fill-opacity:1;stroke:none;stroke-width:2.64583;stroke-linecap:round;stroke-linejoin:round;stroke-opacity:1"
       x="44.005661"
       y="81.277275"
       id="text1270"><tspan
         sodipodi:role="line"
         id="tspan1268"
         style="stroke-width:2.64583;stroke:none;stroke-opacity:1;fill:#ffffff;fill-opacity:1"
         x="44.005661"
         y="81.277275">name</tspan></text>
    <text
       xml:space="preserve"
       style="font-size:4.23333px;fill:#ffffff;fill-opacity:1;stroke:none;stroke-width:2.64583;stroke-linecap:round;stroke-linejoin:round;stroke-opacity:1"
       x="91.018944"
       y="197.14841"
       id="text1274"><tspan
         sodipodi:role="line"
         style="stroke-width:2.64583;stroke:none;stroke-opacity:1;fill:#ffffff;fill-opacity:1"
         x="91.018944"
         y="197.14841"
         id="tspan1278">REF &amp;| VALUE</tspan></text>
    <path
       style="fill:none;fill-opacity:1;stroke:#ffffff;stroke-width:0.264583;stroke-linecap:round;stroke-linejoin:round;stroke-dasharray:none;stroke-opacity:1"
       d="M 105,1.909961 V 186.66148"
       id="path1284" />
    <text
       xml:space="preserve"
       style="font-size:4.23333px;fill:#ffffff;fill-opacity:1;stroke:none;stroke-width:2.64583;stroke-linecap:round;stroke-linejoin:round;stroke-opacity:1"
       x="83.610603"
       y="204.55664"
       id="text1288"><tspan
         sodipodi:role="line"
         style="stroke-width:2.64583;stroke:none;stroke-opacity:1;fill:#ffffff;fill-opacity:1"
         x="83.610603"
         y="204.55664"
         id="tspan1286">GLOBAL &amp;| LOCAL</tspan></text>
    <rect
       style="fill:none;fill-opacity:1;stroke:#ffffff;stroke-width:0.894292;stroke-linecap:round;stroke-linejoin:round;stroke-dasharray:none;stroke-opacity:1"
       id="rect2742"
       width="85.252678"
       height="77.218025"
       x="115.62395"
       y="51.374641" />
    <g
       id="path1260"
       style="fill:none;stroke:#ffffff;stroke-opacity:1;stroke-width:0.1;stroke-dasharray:none">
      <path
         style="color:#000000;fill:none;stroke-width:0.1;stroke-linecap:round;stroke-linejoin:round;stroke:#ffffff;stroke-opacity:1;stroke-dasharray:none"
         d="M 179.2194,57.770311 V 69.87297 l 2.76741,-2.767401 -5.47755,0.05848 2.71425,2.714243"
         id="path2754" />
      <path
         style="color:#000000;fill:none;stroke-linecap:round;stroke-linejoin:round;stroke:#ffffff;stroke-opacity:1;stroke-width:0.1;stroke-dasharray:none"
         d="m 179.21875,56.951172 a 0.81977999,0.81977999 0 0 0 -0.81836,0.818359 v 8.554688 L 176.5,66.34375 a 0.81986197,0.81986197 0 0 0 -0.57031,1.400391 l 2.71484,2.71289 a 0.81977999,0.81977999 0 0 0 0.14649,0 0.81986197,0.81986197 0 0 0 0.98828,0 0.81977999,0.81977999 0 0 0 0.0234,0 0.81977999,0.81977999 0 0 0 0.0156,-0.02344 l 2.74805,-2.748047 a 0.81986197,0.81986197 0 0 0 -0.58789,-1.400391 l -1.93946,0.02148 v -8.53711 a 0.81977999,0.81977999 0 0 0 -0.82031,-0.818359 z"
         id="path2756" />
    </g>
    <text
       xml:space="preserve"
       style="font-size:4.23333px;fill:#ffffff;fill-opacity:1;stroke:none;stroke-width:0.894292;stroke-linecap:round;stroke-linejoin:round;stroke-dasharray:none;stroke-opacity:1"
       x="145.89665"
       y="46.351692"
       id="text2746"><tspan
         sodipodi:role="line"
         id="tspan2744"
         style="fill:#ffffff;fill-opacity:1;stroke:none;stroke-width:0.894292;stroke-opacity:1"
         x="145.89665"
         y="46.351692">wrappers</tspan></text>
    <text
       xml:space="preserve"
       style="font-size:4.23333px;fill:#ffffff;fill-opacity:1;stroke:none;stroke-width:0.894292;stroke-linecap:round;stroke-linejoin:round;stroke-dasharray:none;stroke-opacity:1"
       x="146.15439"
       y="163.81429"
       id="text2750"><tspan
         sodipodi:role="line"
         id="tspan2748"
         style="stroke-width:0.894292;stroke:none;stroke-opacity:1;fill:#ffffff;fill-opacity:1"
         x="146.15439"
         y="163.81429">parsers?</tspan></text>
    <g
       id="g2762"
       style="fill:none;stroke:#ffffff;stroke-width:0.3;stroke-dasharray:none;stroke-opacity:1"
       transform="translate(-15.875)">
      <path
         style="color:#000000;fill:none;stroke:#ffffff;stroke-width:0.3;stroke-linecap:round;stroke-linejoin:round;stroke-dasharray:none;stroke-opacity:1"
         d="M 179.2194,57.770311 V 69.87297 l 2.76741,-2.767401 -5.47755,0.05848 2.71425,2.714243"
         id="path2758" />
      <path
         style="color:#000000;fill:none;stroke:#ffffff;stroke-width:0.3;stroke-linecap:round;stroke-linejoin:round;stroke-dasharray:none;stroke-opacity:1"
         d="m 179.21875,56.951172 a 0.81977999,0.81977999 0 0 0 -0.81836,0.818359 v 8.554688 L 176.5,66.34375 a 0.81986197,0.81986197 0 0 0 -0.57031,1.400391 l 2.71484,2.71289 a 0.81977999,0.81977999 0 0 0 0.14649,0 0.81986197,0.81986197 0 0 0 0.98828,0 0.81977999,0.81977999 0 0 0 0.0234,0 0.81977999,0.81977999 0 0 0 0.0156,-0.02344 l 2.74805,-2.748047 a 0.81986197,0.81986197 0 0 0 -0.58789,-1.400391 l -1.93946,0.02148 v -8.53711 a 0.81977999,0.81977999 0 0 0 -0.82031,-0.818359 z"
         id="path2760" />
    </g>
    <g
       id="g2768"
       style="fill:none;stroke:#ffffff;stroke-width:0.1;stroke-dasharray:none;stroke-opacity:1"
       transform="translate(3.6666667e-7,46.566668)">
      <path
         style="color:#000000;fill:none;stroke:#ffffff;stroke-width:0.1;stroke-linecap:round;stroke-linejoin:round;stroke-dasharray:none;stroke-opacity:1"
         d="M 179.2194,57.770311 V 69.87297 l 2.76741,-2.767401 -5.47755,0.05848 2.71425,2.714243"
         id="path2764" />
      <path
         style="color:#000000;fill:none;stroke:#ffffff;stroke-width:0.1;stroke-linecap:round;stroke-linejoin:round;stroke-dasharray:none;stroke-opacity:1"
         d="m 179.21875,56.951172 a 0.81977999,0.81977999 0 0 0 -0.81836,0.818359 v 8.554688 L 176.5,66.34375 a 0.81986197,0.81986197 0 0 0 -0.57031,1.400391 l 2.71484,2.71289 a 0.81977999,0.81977999 0 0 0 0.14649,0 0.81986197,0.81986197 0 0 0 0.98828,0 0.81977999,0.81977999 0 0 0 0.0234,0 0.81977999,0.81977999 0 0 0 0.0156,-0.02344 l 2.74805,-2.748047 a 0.81986197,0.81986197 0 0 0 -0.58789,-1.400391 l -1.93946,0.02148 v -8.53711 a 0.81977999,0.81977999 0 0 0 -0.82031,-0.818359 z"
         id="path2766" />
    </g>
    <g
       id="g2774"
       style="fill:none;stroke:#ffffff;stroke-width:0.3;stroke-dasharray:none;stroke-opacity:1"
       transform="translate(-15.875,46.566668)">
      <path
         style="color:#000000;fill:none;stroke:#ffffff;stroke-width:0.3;stroke-linecap:round;stroke-linejoin:round;stroke-dasharray:none;stroke-opacity:1"
         d="M 179.2194,57.770311 V 69.87297 l 2.76741,-2.767401 -5.47755,0.05848 2.71425,2.714243"
         id="path2770" />
      <path
         style="color:#000000;fill:none;stroke:#ffffff;stroke-width:0.3;stroke-linecap:round;stroke-linejoin:round;stroke-dasharray:none;stroke-opacity:1"
         d="m 179.21875,56.951172 a 0.81977999,0.81977999 0 0 0 -0.81836,0.818359 v 8.554688 L 176.5,66.34375 a 0.81986197,0.81986197 0 0 0 -0.57031,1.400391 l 2.71484,2.71289 a 0.81977999,0.81977999 0 0 0 0.14649,0 0.81986197,0.81986197 0 0 0 0.98828,0 0.81977999,0.81977999 0 0 0 0.0234,0 0.81977999,0.81977999 0 0 0 0.0156,-0.02344 l 2.74805,-2.748047 a 0.81986197,0.81986197 0 0 0 -0.58789,-1.400391 l -1.93946,0.02148 v -8.53711 a 0.81977999,0.81977999 0 0 0 -0.82031,-0.818359 z"
         id="path2772" />
    </g>
    <text
       xml:space="preserve"
       style="font-size:4.23333px;fill:#ffffff;fill-opacity:1;stroke:none;stroke-width:2.64583;stroke-linecap:round;stroke-linejoin:round;stroke-opacity:1"
       x="147.96376"
       y="88.601952"
       id="text2778"><tspan
         sodipodi:role="line"
         id="tspan2776"
         style="stroke-width:2.64583;stroke:none;stroke-opacity:1;fill:#ffffff;fill-opacity:1"
         x="147.96376"
         y="88.601952">prompt</tspan></text>
    <text
       xml:space="preserve"
       style="font-size:3.16668px;fill:#ffffff;fill-opacity:1;stroke:none;stroke-width:1.97917;stroke-linecap:round;stroke-linejoin:round;stroke-opacity:1"
       x="36.826904"
       y="30.794264"
       id="text2786"><tspan
         sodipodi:role="line"
         id="tspan2782"
         style="stroke:none;stroke-width:1.97917;stroke-opacity:1;fill:#ffffff;fill-opacity:1"
         x="36.826904"
         y="30.794264">[ minimized ]</tspan><tspan
         sodipodi:role="line"
         style="stroke:none;stroke-width:1.97917;stroke-opacity:1;fill:#ffffff;fill-opacity:1"
         x="36.826904"
         y="34.752613"
         id="tspan2784" /></text>
  </g>
</svg>
