<?xml version="1.0" encoding="UTF-8" standalone="no"?>
<!-- Created with Inkscape (http://www.inkscape.org/) -->

<svg
   width="1920"
   height="1080"
   viewBox="0 0 1920 1080"
   version="1.1"
   id="svg5"
   inkscape:version="1.2.2 (b0a8486541, 2022-12-01)"
   sodipodi:docname="diagram.svg"
   xmlns:inkscape="http://www.inkscape.org/namespaces/inkscape"
   xmlns:sodipodi="http://sodipodi.sourceforge.net/DTD/sodipodi-0.dtd"
   xmlns="http://www.w3.org/2000/svg"
   xmlns:svg="http://www.w3.org/2000/svg">
  <sodipodi:namedview
     id="namedview7"
     pagecolor="#000000"
     bordercolor="#000000"
     borderopacity="0.25"
     inkscape:showpageshadow="2"
     inkscape:pageopacity="0"
     inkscape:pagecheckerboard="0"
     inkscape:deskcolor="#d1d1d1"
     inkscape:document-units="px"
     showgrid="false"
     inkscape:zoom="1"
     inkscape:cx="1050.5"
     inkscape:cy="561.5"
     inkscape:window-width="1916"
     inkscape:window-height="1076"
     inkscape:window-x="0"
     inkscape:window-y="0"
     inkscape:window-maximized="1"
     inkscape:current-layer="layer1" />
  <defs
     id="defs2" />
  <g
     inkscape:label="Layer 1"
     inkscape:groupmode="layer"
     id="layer1">
    <rect
       style="fill:none;stroke:#ffffff;stroke-width:2.28158;stroke-linecap:round;stroke-linejoin:round;stroke-dasharray:none;stroke-opacity:1"
       id="rect294"
       width="53.340473"
       height="25.511316"
       x="40.566708"
       y="187.9864" />
    <text
       xml:space="preserve"
       style="font-size:10.8004px;fill:#ffffff;fill-opacity:1;stroke:none;stroke-width:6.75022;stroke-linecap:round;stroke-linejoin:round;stroke-opacity:1"
       x="54.219036"
       y="181.81064"
       id="text404"><tspan
         sodipodi:role="line"
         id="tspan402"
         style="font-size:10.8004px;fill:#ffffff;fill-opacity:1;stroke:none;stroke-width:6.75022;stroke-opacity:1"
         x="54.219036"
         y="181.81064">this</tspan></text>
    <text
       xml:space="preserve"
       style="font-size:10.8004px;fill:#ffffff;fill-opacity:1;stroke:none;stroke-width:6.75022;stroke-linecap:round;stroke-linejoin:round;stroke-opacity:1"
       x="54.332424"
       y="226.79179"
       id="text962"><tspan
         sodipodi:role="line"
         id="tspan960"
         style="fill:#ffffff;fill-opacity:1;stroke:none;stroke-width:6.75022;stroke-opacity:1"
         x="54.332424"
         y="226.79179">that</tspan></text>
    <text
       xml:space="preserve"
       style="font-size:10.8004px;fill:#ffffff;fill-opacity:1;stroke:none;stroke-width:6.75022;stroke-linecap:round;stroke-linejoin:round;stroke-opacity:1"
       x="41.430538"
       y="54.90958"
       id="text1178"><tspan
         sodipodi:role="line"
         id="tspan1176"
         style="fill:#ffffff;fill-opacity:1;stroke:none;stroke-width:6.75022;stroke-opacity:1"
         x="41.430538"
         y="54.90958">smallest</tspan><tspan
         sodipodi:role="line"
         style="fill:#ffffff;fill-opacity:1;stroke:none;stroke-width:6.75022;stroke-opacity:1"
         x="41.430538"
         y="68.410019"
         id="tspan2780" /></text>
    <text
       xml:space="preserve"
       style="font-size:10.8004px;fill:#ffffff;fill-opacity:1;stroke:none;stroke-width:6.75022;stroke-linecap:round;stroke-linejoin:round;stroke-opacity:1"
       x="316.81479"
       y="53.844311"
       id="text1182"><tspan
         sodipodi:role="line"
         id="tspan1180"
         style="fill:#ffffff;fill-opacity:1;stroke:none;stroke-width:6.75022;stroke-opacity:1"
         x="316.81479"
         y="53.844311">largest</tspan></text>
    <rect
       style="fill:none;fill-opacity:1;stroke:#ffffff;stroke-width:4.18295;stroke-linecap:round;stroke-linejoin:round;stroke-opacity:1"
       id="rect1242"
       width="133.26323"
       height="63.736221"
       x="274.90338"
       y="187.24695" />
    <text
       xml:space="preserve"
       style="font-size:10.8004px;fill:#ffffff;fill-opacity:1;stroke:none;stroke-width:6.75022;stroke-linecap:round;stroke-linejoin:round;stroke-opacity:1"
       x="272.57718"
       y="180.56532"
       id="text1246"><tspan
         sodipodi:role="line"
         id="tspan1244"
         style="font-size:10.8004px;fill:#ffffff;fill-opacity:1;stroke:none;stroke-width:6.75022;stroke-opacity:1"
         x="272.57718"
         y="180.56532">this</tspan></text>
    <text
       xml:space="preserve"
       style="font-size:10.8004px;fill:#ffffff;fill-opacity:1;stroke:none;stroke-width:6.75022;stroke-linecap:round;stroke-linejoin:round;stroke-opacity:1"
       x="272.69061"
       y="266.51736"
       id="text1250"><tspan
         sodipodi:role="line"
         id="tspan1248"
         style="fill:#ffffff;fill-opacity:1;stroke:none;stroke-width:6.75022;stroke-opacity:1"
         x="272.69061"
         y="266.51736">that</tspan></text>
    <path
       style="fill:#000000;fill-opacity:1;stroke:#ffffff;stroke-width:4.18295;stroke-linecap:round;stroke-linejoin:round;stroke-opacity:1"
       d="m 315.46547,144.62981 v 30.87711 l 7.06038,-7.06038 -13.97469,0.1492 6.92477,6.92476"
       id="path1252"
       sodipodi:nodetypes="ccccc" />
    <path
       style="fill:#000000;fill-opacity:1;stroke:#ffffff;stroke-width:4.18295;stroke-linecap:round;stroke-linejoin:round;stroke-opacity:1"
       d="m 317.4874,262.44612 v 30.87711 l 7.06038,-7.06037 -13.97469,0.14924 6.92477,6.92475"
       id="path1254"
       sodipodi:nodetypes="ccccc" />
    <text
       xml:space="preserve"
       style="font-size:10.8004px;fill:#ffffff;fill-opacity:1;stroke:none;stroke-width:6.75022;stroke-linecap:round;stroke-linejoin:round;stroke-opacity:1"
       x="281.29459"
       y="199.05444"
       id="text1266"><tspan
         sodipodi:role="line"
         id="tspan1264"
         style="fill:#ffffff;fill-opacity:1;stroke:none;stroke-width:6.75022;stroke-opacity:1"
         x="281.29459"
         y="199.05444">name</tspan></text>
    <text
       xml:space="preserve"
       style="font-size:10.8004px;fill:#ffffff;fill-opacity:1;stroke:none;stroke-width:6.75022;stroke-linecap:round;stroke-linejoin:round;stroke-opacity:1"
       x="54.158394"
       y="204.60234"
       id="text1270"><tspan
         sodipodi:role="line"
         id="tspan1268"
         style="fill:#ffffff;fill-opacity:1;stroke:none;stroke-width:6.75022;stroke-opacity:1"
         x="54.158394"
         y="204.60234">name</tspan></text>
    <text
       xml:space="preserve"
       style="font-size:10.8004px;fill:#ffffff;fill-opacity:1;stroke:none;stroke-width:6.75022;stroke-linecap:round;stroke-linejoin:round;stroke-opacity:1"
       x="174.10181"
       y="357.11761"
       id="text1274"><tspan
         sodipodi:role="line"
         style="fill:#ffffff;fill-opacity:1;stroke:none;stroke-width:6.75022;stroke-opacity:1"
         x="174.10181"
         y="357.11761"
         id="tspan1278">REF &amp;| VALUE</tspan></text>
    <path
       style="fill:none;fill-opacity:1;stroke:#ffffff;stroke-width:0.675022;stroke-linecap:round;stroke-linejoin:round;stroke-dasharray:none;stroke-opacity:1"
       d="M 209.7712,2.1151804 V 324.96057"
       id="path1284"
       sodipodi:nodetypes="cc" />
    <text
       xml:space="preserve"
       style="font-size:10.8004px;fill:#ffffff;fill-opacity:1;stroke:none;stroke-width:6.75022;stroke-linecap:round;stroke-linejoin:round;stroke-opacity:1"
       x="155.20116"
       y="376.01797"
       id="text1288"><tspan
         sodipodi:role="line"
         style="fill:#ffffff;fill-opacity:1;stroke:none;stroke-width:6.75022;stroke-opacity:1"
         x="155.20116"
         y="376.01797"
         id="tspan1286">GLOBAL &amp;| LOCAL</tspan></text>
    <rect
       style="fill:none;fill-opacity:1;stroke:#ffffff;stroke-width:2.28158;stroke-linecap:round;stroke-linejoin:round;stroke-dasharray:none;stroke-opacity:1"
       id="rect2742"
       width="217.50229"
       height="197.00375"
       x="236.87572"
       y="128.31276" />
    <g
       id="path1260"
       style="fill:none;stroke:#ffffff;stroke-width:0.1;stroke-dasharray:none;stroke-opacity:1"
       transform="matrix(2.5512664,0,0,2.5512664,-58.111772,-2.757639)">
      <path
         style="color:#000000;fill:none;stroke:#ffffff;stroke-width:0.1;stroke-linecap:round;stroke-linejoin:round;stroke-dasharray:none;stroke-opacity:1"
         d="M 179.2194,57.770311 V 69.87297 l 2.76741,-2.767401 -5.47755,0.05848 2.71425,2.714243"
         id="path2754" />
      <path
         style="color:#000000;fill:none;stroke:#ffffff;stroke-width:0.1;stroke-linecap:round;stroke-linejoin:round;stroke-dasharray:none;stroke-opacity:1"
         d="m 179.21875,56.951172 a 0.81977999,0.81977999 0 0 0 -0.81836,0.818359 v 8.554688 L 176.5,66.34375 a 0.81986197,0.81986197 0 0 0 -0.57031,1.400391 l 2.71484,2.71289 a 0.81977999,0.81977999 0 0 0 0.14649,0 0.81986197,0.81986197 0 0 0 0.98828,0 0.81977999,0.81977999 0 0 0 0.0234,0 0.81977999,0.81977999 0 0 0 0.0156,-0.02344 l 2.74805,-2.748047 a 0.81986197,0.81986197 0 0 0 -0.58789,-1.400391 l -1.93946,0.02148 v -8.53711 a 0.81977999,0.81977999 0 0 0 -0.82031,-0.818359 z"
         id="path2756" />
    </g>
    <text
       xml:space="preserve"
       style="font-size:10.8004px;fill:#ffffff;fill-opacity:1;stroke:none;stroke-width:2.28158;stroke-linecap:round;stroke-linejoin:round;stroke-dasharray:none;stroke-opacity:1"
       x="314.10947"
       y="115.49788"
       id="text2746"><tspan
         sodipodi:role="line"
         id="tspan2744"
         style="fill:#ffffff;fill-opacity:1;stroke:none;stroke-width:2.28158;stroke-opacity:1"
         x="314.10947"
         y="115.49788">wrappers</tspan></text>
    <text
       xml:space="preserve"
       style="font-size:10.8004px;fill:#ffffff;fill-opacity:1;stroke:none;stroke-width:2.28158;stroke-linecap:round;stroke-linejoin:round;stroke-dasharray:none;stroke-opacity:1"
       x="314.767"
       y="357.12509"
       id="text2750"><tspan
         sodipodi:role="line"
         id="tspan2748"
         style="fill:#ffffff;fill-opacity:1;stroke:none;stroke-width:2.28158;stroke-opacity:1"
         x="314.767"
         y="357.12509">parsers?</tspan></text>
    <g
       id="g2762"
       style="fill:none;stroke:#ffffff;stroke-width:0.3;stroke-dasharray:none;stroke-opacity:1"
       transform="matrix(2.5512664,0,0,2.5512664,-98.613126,-2.757639)">
      <path
         style="color:#000000;fill:none;stroke:#ffffff;stroke-width:0.3;stroke-linecap:round;stroke-linejoin:round;stroke-dasharray:none;stroke-opacity:1"
         d="M 179.2194,57.770311 V 69.87297 l 2.76741,-2.767401 -5.47755,0.05848 2.71425,2.714243"
         id="path2758" />
      <path
         style="color:#000000;fill:none;stroke:#ffffff;stroke-width:0.3;stroke-linecap:round;stroke-linejoin:round;stroke-dasharray:none;stroke-opacity:1"
         d="m 179.21875,56.951172 a 0.81977999,0.81977999 0 0 0 -0.81836,0.818359 v 8.554688 L 176.5,66.34375 a 0.81986197,0.81986197 0 0 0 -0.57031,1.400391 l 2.71484,2.71289 a 0.81977999,0.81977999 0 0 0 0.14649,0 0.81986197,0.81986197 0 0 0 0.98828,0 0.81977999,0.81977999 0 0 0 0.0234,0 0.81977999,0.81977999 0 0 0 0.0156,-0.02344 l 2.74805,-2.748047 a 0.81986197,0.81986197 0 0 0 -0.58789,-1.400391 l -1.93946,0.02148 v -8.53711 a 0.81977999,0.81977999 0 0 0 -0.82031,-0.818359 z"
         id="path2760" />
    </g>
    <g
       id="g2768"
       style="fill:none;stroke:#ffffff;stroke-width:0.1;stroke-dasharray:none;stroke-opacity:1"
       transform="matrix(2.5512664,0,0,2.5512664,-58.111771,116.04634)">
      <path
         style="color:#000000;fill:none;stroke:#ffffff;stroke-width:0.1;stroke-linecap:round;stroke-linejoin:round;stroke-dasharray:none;stroke-opacity:1"
         d="M 179.2194,57.770311 V 69.87297 l 2.76741,-2.767401 -5.47755,0.05848 2.71425,2.714243"
         id="path2764" />
      <path
         style="color:#000000;fill:none;stroke:#ffffff;stroke-width:0.1;stroke-linecap:round;stroke-linejoin:round;stroke-dasharray:none;stroke-opacity:1"
         d="m 179.21875,56.951172 a 0.81977999,0.81977999 0 0 0 -0.81836,0.818359 v 8.554688 L 176.5,66.34375 a 0.81986197,0.81986197 0 0 0 -0.57031,1.400391 l 2.71484,2.71289 a 0.81977999,0.81977999 0 0 0 0.14649,0 0.81986197,0.81986197 0 0 0 0.98828,0 0.81977999,0.81977999 0 0 0 0.0234,0 0.81977999,0.81977999 0 0 0 0.0156,-0.02344 l 2.74805,-2.748047 a 0.81986197,0.81986197 0 0 0 -0.58789,-1.400391 l -1.93946,0.02148 v -8.53711 a 0.81977999,0.81977999 0 0 0 -0.82031,-0.818359 z"
         id="path2766" />
    </g>
    <g
       id="g2774"
       style="fill:none;stroke:#ffffff;stroke-width:0.3;stroke-dasharray:none;stroke-opacity:1"
       transform="matrix(2.5512664,0,0,2.5512664,-98.613126,116.04634)">
      <path
         style="color:#000000;fill:none;stroke:#ffffff;stroke-width:0.3;stroke-linecap:round;stroke-linejoin:round;stroke-dasharray:none;stroke-opacity:1"
         d="M 179.2194,57.770311 V 69.87297 l 2.76741,-2.767401 -5.47755,0.05848 2.71425,2.714243"
         id="path2770" />
      <path
         style="color:#000000;fill:none;stroke:#ffffff;stroke-width:0.3;stroke-linecap:round;stroke-linejoin:round;stroke-dasharray:none;stroke-opacity:1"
         d="m 179.21875,56.951172 a 0.81977999,0.81977999 0 0 0 -0.81836,0.818359 v 8.554688 L 176.5,66.34375 a 0.81986197,0.81986197 0 0 0 -0.57031,1.400391 l 2.71484,2.71289 a 0.81977999,0.81977999 0 0 0 0.14649,0 0.81986197,0.81986197 0 0 0 0.98828,0 0.81977999,0.81977999 0 0 0 0.0234,0 0.81977999,0.81977999 0 0 0 0.0156,-0.02344 l 2.74805,-2.748047 a 0.81986197,0.81986197 0 0 0 -0.58789,-1.400391 l -1.93946,0.02148 v -8.53711 a 0.81977999,0.81977999 0 0 0 -0.82031,-0.818359 z"
         id="path2772" />
    </g>
    <text
       xml:space="preserve"
       style="font-size:10.8004px;fill:#ffffff;fill-opacity:1;stroke:none;stroke-width:6.75022;stroke-linecap:round;stroke-linejoin:round;stroke-opacity:1"
       x="319.38321"
       y="223.28954"
       id="text2778"><tspan
         sodipodi:role="line"
         id="tspan2776"
         style="fill:#ffffff;fill-opacity:1;stroke:none;stroke-width:6.75022;stroke-opacity:1"
         x="319.38321"
         y="223.28954">prompt</tspan></text>
    <text
       xml:space="preserve"
       style="font-size:8.07904px;fill:#ffffff;fill-opacity:1;stroke:none;stroke-width:5.04939;stroke-linecap:round;stroke-linejoin:round;stroke-opacity:1"
       x="35.843472"
       y="75.806732"
       id="text2786"><tspan
         sodipodi:role="line"
         id="tspan2782"
         style="fill:#ffffff;fill-opacity:1;stroke:none;stroke-width:5.04939;stroke-opacity:1"
         x="35.843472"
         y="75.806732">[ minimized ]</tspan><tspan
         sodipodi:role="line"
         style="fill:#ffffff;fill-opacity:1;stroke:none;stroke-width:5.04939;stroke-opacity:1"
         x="35.843472"
         y="85.905533"
         id="tspan2784" /></text>
    <rect
       style="fill:#ffffff;stroke-width:0.255127;stroke-linecap:round;stroke-linejoin:round"
       id="rect441"
       width="76.343468"
       height="52.612206"
       x="661.22778"
       y="581.88873" />
    <rect
       style="fill:none;stroke:#ffffff;stroke-width:1.35005;stroke-linecap:round;stroke-linejoin:round;stroke-dasharray:none;stroke-opacity:1"
       id="rect443"
       width="223.1767"
       height="160.87686"
       x="639.70514"
       y="560.703" />
    <rect
       style="fill:#ffffff;stroke-width:0.255127;stroke-linecap:round;stroke-linejoin:round"
       id="rect3283"
       width="76.343468"
       height="52.612206"
       x="761.22778"
       y="581.88873" />
    <rect
       style="fill:#ffffff;stroke-width:0.255127;stroke-linecap:round;stroke-linejoin:round"
       id="rect3285"
       width="76.343468"
       height="52.612206"
       x="711.22778"
       y="647.88873" />
    <rect
       style="fill:#ffffff;stroke-width:0.129734;stroke-linecap:round;stroke-linejoin:round"
       id="rect3287"
       width="76.343468"
       height="13.604393"
       x="941.22778"
       y="553.39264" />
    <rect
       style="fill:none;stroke:#ffffff;stroke-width:1.35005;stroke-linecap:round;stroke-linejoin:round;stroke-dasharray:none;stroke-opacity:1"
       id="rect3289"
       width="223.1767"
       height="160.87686"
       x="919.70514"
       y="560.703" />
    <rect
       style="fill:#ffffff;stroke-width:0.129734;stroke-linecap:round;stroke-linejoin:round"
       id="rect3291"
       width="76.343468"
       height="13.604393"
       x="1041.2278"
       y="553.39264" />
    <rect
       style="fill:#ffffff;stroke-width:0.255127;stroke-linecap:round;stroke-linejoin:round"
       id="rect3293"
       width="76.343468"
       height="52.612206"
       x="991.22778"
       y="613.88873" />
    <rect
       style="fill:#ffffff;stroke-width:0.255127;stroke-linecap:round;stroke-linejoin:round"
       id="rect3295"
       width="76.343468"
       height="52.612206"
       x="941.22778"
       y="461.88873" />
    <rect
       style="fill:#ffffff;stroke-width:0.255127;stroke-linecap:round;stroke-linejoin:round"
       id="rect3297"
       width="76.343468"
       height="52.612206"
       x="1041.2278"
       y="461.88873" />
    <path
       id="rect4027"
       style="fill:#ffffff;stroke:#000000;stroke-width:1;stroke-linecap:round;stroke-linejoin:round;stroke-dasharray:none;stroke-opacity:1"
       d="m 742.06762,666.55956 17.04659,9.2759 -17.04659,9.27591 z"
       sodipodi:nodetypes="cccc" />
    <path
       id="path4086"
       style="fill:#ffffff;stroke:#000000;stroke-width:1;stroke-linecap:round;stroke-linejoin:round;stroke-dasharray:none;stroke-opacity:1"
       d="m 642.06762,506.55956 17.04659,9.2759 -17.04659,9.27591 z"
       sodipodi:nodetypes="cccc" />
    <rect
       style="fill:#ffffff;stroke-width:0.255127;stroke-linecap:round;stroke-linejoin:round"
       id="rect4088"
       width="76.343468"
       height="52.612206"
       x="661.22778"
       y="761.88873" />
    <rect
       style="fill:#ffffff;stroke-width:0.255127;stroke-linecap:round;stroke-linejoin:round"
       id="rect4090"
       width="76.343468"
       height="52.612206"
       x="761.22778"
       y="761.88873" />
    <path
       style="fill:none;stroke:#000000;stroke-width:1;stroke-linecap:round;stroke-linejoin:round;stroke-dasharray:none;stroke-opacity:1"
       d="m 744.78906,693.99609 -45.8789,90.91016 92.83203,-1.53516"
       id="path4146" />
  </g>
</svg>
