<?xml version="1.0" encoding="UTF-8" standalone="no"?>
<!-- Created with Inkscape (http://www.inkscape.org/) -->

<svg
   width="1920"
   height="1080"
   viewBox="0 0 1920 1080"
   version="1.1"
   id="svg5"
   inkscape:version="1.2.2 (b0a8486541, 2022-12-01)"
   sodipodi:docname="diagram.svg"
   xmlns:inkscape="http://www.inkscape.org/namespaces/inkscape"
   xmlns:sodipodi="http://sodipodi.sourceforge.net/DTD/sodipodi-0.dtd"
   xmlns="http://www.w3.org/2000/svg"
   xmlns:svg="http://www.w3.org/2000/svg">
  <sodipodi:namedview
     id="namedview7"
     pagecolor="#000000"
     bordercolor="#000000"
     borderopacity="0.25"
     inkscape:showpageshadow="2"
     inkscape:pageopacity="0"
     inkscape:pagecheckerboard="0"
     inkscape:deskcolor="#d1d1d1"
     inkscape:document-units="px"
     showgrid="false"
     inkscape:zoom="0.5"
     inkscape:cx="1003"
     inkscape:cy="489"
     inkscape:window-width="1916"
     inkscape:window-height="1076"
     inkscape:window-x="0"
     inkscape:window-y="0"
     inkscape:window-maximized="1"
     inkscape:current-layer="layer1" />
  <defs
     id="defs2" />
  <g
     inkscape:label="Layer 1"
     inkscape:groupmode="layer"
     id="layer1">
    <rect
       style="fill:none;stroke:#ffffff;stroke-width:5.51353;stroke-linecap:round;stroke-linejoin:round;stroke-dasharray:none;stroke-opacity:1"
       id="rect294"
       width="128.89925"
       height="61.649052"
       x="326.80667"
       y="825.04041" />
    <rect
       style="fill:none;fill-opacity:1;stroke:#ffffff;stroke-width:10.1083;stroke-linecap:round;stroke-linejoin:round;stroke-opacity:1"
       id="rect1242"
       width="322.03558"
       height="154.02097"
       x="227.97694"
       y="381.84424" />
    <path
       style="fill:#000000;fill-opacity:1;stroke:#ffffff;stroke-width:10.1083;stroke-linecap:round;stroke-linejoin:round;stroke-opacity:1"
       d="m 325.99675,278.85833 v 74.61569 l 17.06166,-17.06168 -33.77035,0.36055 16.73397,16.73394"
       id="path1252"
       sodipodi:nodetypes="ccccc" />
    <path
       style="fill:#000000;fill-opacity:1;stroke:#ffffff;stroke-width:10.1083;stroke-linecap:round;stroke-linejoin:round;stroke-opacity:1"
       d="m 330.88282,563.56585 v 74.61569 l 17.06166,-17.06165 -33.77035,0.36064 16.73396,16.73392"
       id="path1254"
       sodipodi:nodetypes="ccccc" />
    <rect
       style="fill:none;fill-opacity:1;stroke:#ffffff;stroke-width:5.51353;stroke-linecap:round;stroke-linejoin:round;stroke-dasharray:none;stroke-opacity:1"
       id="rect2742"
       width="525.60242"
       height="476.06696"
       x="136.08165"
       y="239.42754" />
    <g
       id="path1260"
       style="fill:none;stroke:#ffffff;stroke-width:0.1;stroke-dasharray:none;stroke-opacity:1"
       transform="matrix(6.1652307,0,0,6.1652307,-576.76664,-77.308966)">
      <path
         style="color:#000000;fill:none;stroke:#ffffff;stroke-width:0.1;stroke-linecap:round;stroke-linejoin:round;stroke-dasharray:none;stroke-opacity:1"
         d="M 179.2194,57.770311 V 69.87297 l 2.76741,-2.767401 -5.47755,0.05848 2.71425,2.714243"
         id="path2754" />
      <path
         style="color:#000000;fill:none;stroke:#ffffff;stroke-width:0.1;stroke-linecap:round;stroke-linejoin:round;stroke-dasharray:none;stroke-opacity:1"
         d="m 179.21875,56.951172 a 0.81977999,0.81977999 0 0 0 -0.81836,0.818359 v 8.554688 L 176.5,66.34375 a 0.81986197,0.81986197 0 0 0 -0.57031,1.400391 l 2.71484,2.71289 a 0.81977999,0.81977999 0 0 0 0.14649,0 0.81986197,0.81986197 0 0 0 0.98828,0 0.81977999,0.81977999 0 0 0 0.0234,0 0.81977999,0.81977999 0 0 0 0.0156,-0.02344 l 2.74805,-2.748047 a 0.81986197,0.81986197 0 0 0 -0.58789,-1.400391 l -1.93946,0.02148 v -8.53711 a 0.81977999,0.81977999 0 0 0 -0.82031,-0.818359 z"
         id="path2756" />
    </g>
    <g
       id="g2762"
       style="fill:none;stroke:#ffffff;stroke-width:0.3;stroke-dasharray:none;stroke-opacity:1"
       transform="matrix(6.1652307,0,0,6.1652307,-674.63968,-77.308966)">
      <path
         style="color:#000000;fill:none;stroke:#ffffff;stroke-width:0.3;stroke-linecap:round;stroke-linejoin:round;stroke-dasharray:none;stroke-opacity:1"
         d="M 179.2194,57.770311 V 69.87297 l 2.76741,-2.767401 -5.47755,0.05848 2.71425,2.714243"
         id="path2758" />
      <path
         style="color:#000000;fill:none;stroke:#ffffff;stroke-width:0.3;stroke-linecap:round;stroke-linejoin:round;stroke-dasharray:none;stroke-opacity:1"
         d="m 179.21875,56.951172 a 0.81977999,0.81977999 0 0 0 -0.81836,0.818359 v 8.554688 L 176.5,66.34375 a 0.81986197,0.81986197 0 0 0 -0.57031,1.400391 l 2.71484,2.71289 a 0.81977999,0.81977999 0 0 0 0.14649,0 0.81986197,0.81986197 0 0 0 0.98828,0 0.81977999,0.81977999 0 0 0 0.0234,0 0.81977999,0.81977999 0 0 0 0.0156,-0.02344 l 2.74805,-2.748047 a 0.81986197,0.81986197 0 0 0 -0.58789,-1.400391 l -1.93946,0.02148 v -8.53711 a 0.81977999,0.81977999 0 0 0 -0.82031,-0.818359 z"
         id="path2760" />
    </g>
    <g
       id="g2768"
       style="fill:none;stroke:#ffffff;stroke-width:0.1;stroke-dasharray:none;stroke-opacity:1"
       transform="matrix(6.1652307,0,0,6.1652307,-576.76664,209.7853)">
      <path
         style="color:#000000;fill:none;stroke:#ffffff;stroke-width:0.1;stroke-linecap:round;stroke-linejoin:round;stroke-dasharray:none;stroke-opacity:1"
         d="M 179.2194,57.770311 V 69.87297 l 2.76741,-2.767401 -5.47755,0.05848 2.71425,2.714243"
         id="path2764" />
      <path
         style="color:#000000;fill:none;stroke:#ffffff;stroke-width:0.1;stroke-linecap:round;stroke-linejoin:round;stroke-dasharray:none;stroke-opacity:1"
         d="m 179.21875,56.951172 a 0.81977999,0.81977999 0 0 0 -0.81836,0.818359 v 8.554688 L 176.5,66.34375 a 0.81986197,0.81986197 0 0 0 -0.57031,1.400391 l 2.71484,2.71289 a 0.81977999,0.81977999 0 0 0 0.14649,0 0.81986197,0.81986197 0 0 0 0.98828,0 0.81977999,0.81977999 0 0 0 0.0234,0 0.81977999,0.81977999 0 0 0 0.0156,-0.02344 l 2.74805,-2.748047 a 0.81986197,0.81986197 0 0 0 -0.58789,-1.400391 l -1.93946,0.02148 v -8.53711 a 0.81977999,0.81977999 0 0 0 -0.82031,-0.818359 z"
         id="path2766" />
    </g>
    <g
       id="g2774"
       style="fill:none;stroke:#ffffff;stroke-width:0.3;stroke-dasharray:none;stroke-opacity:1"
       transform="matrix(6.1652307,0,0,6.1652307,-674.63968,209.7853)">
      <path
         style="color:#000000;fill:none;stroke:#ffffff;stroke-width:0.3;stroke-linecap:round;stroke-linejoin:round;stroke-dasharray:none;stroke-opacity:1"
         d="M 179.2194,57.770311 V 69.87297 l 2.76741,-2.767401 -5.47755,0.05848 2.71425,2.714243"
         id="path2770" />
      <path
         style="color:#000000;fill:none;stroke:#ffffff;stroke-width:0.3;stroke-linecap:round;stroke-linejoin:round;stroke-dasharray:none;stroke-opacity:1"
         d="m 179.21875,56.951172 a 0.81977999,0.81977999 0 0 0 -0.81836,0.818359 v 8.554688 L 176.5,66.34375 a 0.81986197,0.81986197 0 0 0 -0.57031,1.400391 l 2.71484,2.71289 a 0.81977999,0.81977999 0 0 0 0.14649,0 0.81986197,0.81986197 0 0 0 0.98828,0 0.81977999,0.81977999 0 0 0 0.0234,0 0.81977999,0.81977999 0 0 0 0.0156,-0.02344 l 2.74805,-2.748047 a 0.81986197,0.81986197 0 0 0 -0.58789,-1.400391 l -1.93946,0.02148 v -8.53711 a 0.81977999,0.81977999 0 0 0 -0.82031,-0.818359 z"
         id="path2772" />
    </g>
    <rect
       style="fill:#ffffff;stroke-width:0.454596;stroke-linecap:round;stroke-linejoin:round"
       id="rect441"
       width="136.03212"
       height="93.746712"
       x="959.0282"
       y="453.23047" />
    <rect
       style="fill:none;stroke:#ffffff;stroke-width:2.40557;stroke-linecap:round;stroke-linejoin:round;stroke-dasharray:none;stroke-opacity:1"
       id="rect443"
       width="397.66595"
       height="286.65738"
       x="920.67816"
       y="415.48077" />
    <rect
       style="fill:#ffffff;stroke-width:0.454596;stroke-linecap:round;stroke-linejoin:round"
       id="rect3283"
       width="136.03212"
       height="93.746712"
       x="1137.2126"
       y="453.23047" />
    <rect
       style="fill:#ffffff;stroke-width:0.454596;stroke-linecap:round;stroke-linejoin:round"
       id="rect3285"
       width="136.03212"
       height="93.746712"
       x="1048.1205"
       y="570.83209" />
    <rect
       style="fill:#ffffff;stroke-width:0.231166;stroke-linecap:round;stroke-linejoin:round"
       id="rect3287"
       width="136.03212"
       height="24.2409"
       x="1457.9443"
       y="402.45486" />
    <rect
       style="fill:none;stroke:#ffffff;stroke-width:2.40557;stroke-linecap:round;stroke-linejoin:round;stroke-dasharray:none;stroke-opacity:1"
       id="rect3289"
       width="397.66595"
       height="286.65738"
       x="1419.5944"
       y="415.48077" />
    <rect
       style="fill:#ffffff;stroke-width:0.231166;stroke-linecap:round;stroke-linejoin:round"
       id="rect3291"
       width="136.03212"
       height="24.2409"
       x="1636.1288"
       y="402.45486" />
    <rect
       style="fill:#ffffff;stroke-width:0.454596;stroke-linecap:round;stroke-linejoin:round"
       id="rect3293"
       width="136.03212"
       height="93.746712"
       x="1547.0366"
       y="510.24945" />
    <rect
       style="fill:#ffffff;stroke-width:0.454596;stroke-linecap:round;stroke-linejoin:round"
       id="rect3295"
       width="136.03212"
       height="93.746712"
       x="1457.9443"
       y="239.40924" />
    <rect
       style="fill:#ffffff;stroke-width:0.454596;stroke-linecap:round;stroke-linejoin:round"
       id="rect3297"
       width="136.03212"
       height="93.746712"
       x="1636.1288"
       y="239.40924" />
    <path
       id="rect4027"
       style="fill:#ffffff;stroke:#000000;stroke-width:1.78184;stroke-linecap:round;stroke-linejoin:round;stroke-dasharray:none;stroke-opacity:1"
       d="m 1103.0721,604.10062 30.3744,16.5282 -30.3744,16.52821 z"
       sodipodi:nodetypes="cccc" />
    <path
       id="path4086"
       style="fill:#ffffff;stroke:#000000;stroke-width:1.78184;stroke-linecap:round;stroke-linejoin:round;stroke-dasharray:none;stroke-opacity:1"
       d="m 924.88774,319.00567 30.37445,16.5282 -30.37445,16.52821 z"
       sodipodi:nodetypes="cccc" />
    <rect
       style="fill:#ffffff;stroke-width:0.454596;stroke-linecap:round;stroke-linejoin:round"
       id="rect4088"
       width="136.03212"
       height="93.746712"
       x="959.0282"
       y="773.96228" />
    <rect
       style="fill:#ffffff;stroke-width:0.454596;stroke-linecap:round;stroke-linejoin:round"
       id="rect4090"
       width="136.03212"
       height="93.746712"
       x="1137.2126"
       y="773.96228" />
    <path
       style="fill:none;stroke:#000000;stroke-width:1.78184;stroke-linecap:round;stroke-linejoin:round;stroke-dasharray:none;stroke-opacity:1"
       d="m 1107.9214,652.98822 -81.7491,161.98767 165.4122,-2.73541"
       id="path4146" />
    <text
       xml:space="preserve"
       style="font-size:51.2644px;fill:#ffffff;stroke-width:48.0604;stroke-linecap:round;stroke-linejoin:round"
       x="790.74988"
       y="106.84981"
       id="text411"><tspan
         sodipodi:role="line"
         id="tspan409"
         x="790.74988"
         y="106.84981"
         style="stroke-width:48.0604">prompturing</tspan></text>
  </g>
</svg>
